HIERARCHY
ROOT Hips
{
	OFFSET 0.000000 0.000000 0.000000
	CHANNELS 6 Xposition Yposition Zposition Xrotation Yrotation Zrotation
	JOINT LeftUpLeg_virtual
	{
		OFFSET 0.000000 0.000000 0.000000
		CHANNELS 3 Xrotation Yrotation Zrotation
		JOINT LeftUpLeg
		{
			OFFSET 10.205400 -3.823500 0.155100
			CHANNELS 3 Xrotation Yrotation Zrotation
			JOINT LeftLeg
			{
				OFFSET 0.708757 -12.982077 0.567790
				CHANNELS 3 Xrotation Yrotation Zrotation
				JOINT LeftFoot
				{
					OFFSET -0.708756 -10.717838 -2.184338
					CHANNELS 3 Xrotation Yrotation Zrotation
					JOINT LeftToeBase
					{
						OFFSET 0.108149 -7.191104 7.560241
						CHANNELS 3 Xrotation Yrotation Zrotation
						JOINT LeftToe_End
						{
							OFFSET 0.070230 0.081724 4.490308
							CHANNELS 3 Xrotation Yrotation Zrotation
							End Site
							{
								OFFSET 0 0 0
							}
						}
					}
				}
			}
		}
	}
	JOINT RightUpLeg_virtual
	{
		OFFSET 0.000000 0.000000 0.000000
		CHANNELS 3 Xrotation Yrotation Zrotation
		JOINT RightUpLeg
		{
			OFFSET -10.205400 -3.823500 0.005500
			CHANNELS 3 Xrotation Yrotation Zrotation
			JOINT RightLeg
			{
				OFFSET -0.708756 -12.982134 0.610632
				CHANNELS 3 Xrotation Yrotation Zrotation
				JOINT RightFoot
				{
					OFFSET 0.708754 -10.717769 -1.945823
					CHANNELS 3 Xrotation Yrotation Zrotation
					JOINT RightToeBase
					{
						OFFSET -0.108140 -7.191069 7.372968
						CHANNELS 3 Xrotation Yrotation Zrotation
						JOINT RightToe_End
						{
							OFFSET -0.070227 0.081735 4.479403
							CHANNELS 3 Xrotation Yrotation Zrotation
							End Site
							{
								OFFSET 0 0 0
							}
						}
					}
				}
			}
		}
	}
	JOINT Spine_virtual
	{
		OFFSET 0.000000 0.000000 0.000000
		CHANNELS 3 Xrotation Yrotation Zrotation
		JOINT Spine
		{
			OFFSET 0.000000 6.876099 0.125700
			CHANNELS 3 Xrotation Yrotation Zrotation
			JOINT Spine1
			{
				OFFSET 0.000000 5.730043 0.104720
				CHANNELS 3 Xrotation Yrotation Zrotation
				JOINT Spine1_split
				{
					OFFSET 0.000000 5.730043 0.104720
					CHANNELS 3 Xrotation Yrotation Zrotation
					JOINT Spine2
					{
						OFFSET 0.000000 5.730043 0.104720
						CHANNELS 3 Xrotation Yrotation Zrotation
						JOINT Neck_virtual
						{
							OFFSET 0.000000 0.000000 0.000000
							CHANNELS 3 Xrotation Yrotation Zrotation
							JOINT Neck
							{
								OFFSET 0.000000 10.314075 0.188496
								CHANNELS 3 Xrotation Yrotation Zrotation
								JOINT Head
								{
									OFFSET 0.000000 7.643700 -2.377400
									CHANNELS 3 Xrotation Yrotation Zrotation
									JOINT HeadTop_End
									{
										OFFSET 0.000000 43.788605 -13.619600
										CHANNELS 3 Xrotation Yrotation Zrotation
										End Site
										{
											OFFSET 0 0 0
										}
									}
								}
							}
						}
						JOINT LeftShoulder_virtual
						{
							OFFSET 0.000000 0.000000 0.000000
							CHANNELS 3 Xrotation Yrotation Zrotation
							JOINT LeftShoulder
							{
								OFFSET 2.196100 4.412489 0.087492
								CHANNELS 3 Xrotation Yrotation Zrotation
								JOINT LeftShoulder_split
								{
									OFFSET 2.196100 4.412489 0.087492
									CHANNELS 3 Xrotation Yrotation Zrotation
									JOINT LeftArm
									{
										OFFSET 8.771219 -2.981674 -0.026999
										CHANNELS 3 Xrotation Yrotation Zrotation
										JOINT LeftForeArm
										{
											OFFSET 8.512804 0.000000 -0.000000
											CHANNELS 3 Xrotation Yrotation Zrotation
											JOINT LeftHand
											{
												OFFSET 18.484802 0.000000 -0.000000
												CHANNELS 3 Xrotation Yrotation Zrotation
												End Site
												{
													OFFSET 0 0 0
												}
											}
										}
									}
								}
							}
						}
						JOINT RightShoulder_virtual
						{
							OFFSET 0.000000 0.000000 0.000000
							CHANNELS 3 Xrotation Yrotation Zrotation
							JOINT RightShoulder
							{
								OFFSET -2.196100 4.412496 0.070690
								CHANNELS 3 Xrotation Yrotation Zrotation
								JOINT RightShoulder_split
								{
									OFFSET -2.196100 4.412496 0.070690
									CHANNELS 3 Xrotation Yrotation Zrotation
									JOINT RightArm
									{
										OFFSET -8.771282 -2.981682 -0.094208
										CHANNELS 3 Xrotation Yrotation Zrotation
										JOINT RightForeArm
										{
											OFFSET -8.494598 0.000000 0.000000
											CHANNELS 3 Xrotation Yrotation Zrotation
											JOINT RightHand
											{
												OFFSET -18.483803 0.000000 0.000001
												CHANNELS 3 Xrotation Yrotation Zrotation
												End Site
												{
													OFFSET 0 0 0
												}
											}
										}
									}
								}
							}
						}
					}
				}
			}
		}
	}
}
MOTION
Frames: 8
Frame Time: 0.03333333
-0.278418 33.349663 0.501060 0.000000 0.000000 0.000000 0.083717 -5.822080 0.549269 -8.324077 -4.772212 12.402875 27.308186 1.494431 -1.018199 -11.141761 11.654403 -13.795222 -1.698046 0.600270 -0.941564 0.000000 0.000000 0.000000 1.152347 -6.076972 0.347780 3.527240 -4.979885 -14.627431 16.789992 4.279917 3.663091 -20.028111 -13.960996 12.068368 5.196778 -1.480573 -1.302847 0.000000 0.000000 0.000000 0.978452 -3.504309 -0.857664 3.008684 -0.869948 0.808142 2.438019 -0.067521 0.239787 1.090711 -0.373312 -0.161883 0.000000 0.000000 0.000000 2.330018 -0.055151 0.059742 -0.997415 0.428516 1.091927 1.057664 0.696832 2.316004 0.000000 0.000000 0.000000 1.850831 0.109459 0.058492 0.495391 9.798379 -11.590374 -1.276848 -1.293291 -1.200422 13.779966 -8.524611 -50.620991 1.332173 -35.213996 1.589732 0.000000 0.000000 0.000000 2.060829 -0.047147 0.088745 1.553715 -7.645019 12.867957 0.809454 2.049064 -2.201122 5.655594 20.339672 60.946584 2.652165 24.275443 1.043346 0.000000 0.000000 0.000000 
-0.314414 33.416874 0.431910 0.000000 0.000000 0.000000 0.185335 -5.296528 0.945163 -8.550556 -3.794468 11.593547 27.279668 0.372491 -1.057488 -9.272690 10.109005 -15.382204 -2.918554 0.469816 -0.226692 0.000000 0.000000 0.000000 1.059129 -5.955389 0.664499 3.271578 -5.560311 -15.095119 16.431009 4.145406 3.757133 -20.174244 -13.323561 10.899894 6.079537 -1.515712 -0.873222 0.000000 0.000000 0.000000 1.183875 -3.268115 -0.233407 2.991851 -0.992001 0.664816 2.259095 -0.123905 0.201965 0.865709 -0.520192 -0.146573 0.000000 0.000000 0.000000 2.250662 -0.114012 0.045150 -0.695380 0.543709 0.779693 1.436600 0.873959 2.368650 0.000000 0.000000 0.000000 1.796811 0.028004 0.019046 0.536171 9.604965 -11.516217 -1.274528 -1.142257 -1.124174 13.438839 -9.258605 -50.915044 1.371616 -35.681960 1.647217 0.000000 0.000000 0.000000 2.029288 -0.124720 0.092108 1.623081 -7.670126 12.828066 0.677326 2.050728 -2.497169 5.487782 20.582294 60.775242 2.592323 25.347086 1.061981 0.000000 0.000000 0.000000 
-0.400542 33.524887 0.293913 0.000000 0.000000 0.000000 0.333876 -4.916035 1.836372 -7.553494 -2.056982 9.578773 25.831552 -0.299954 -1.288858 -8.914310 8.045203 -15.039660 -6.490879 0.189401 1.121011 0.000000 0.000000 0.000000 1.127400 -5.699088 1.468915 2.037800 -6.094714 -15.927258 17.247556 4.237401 3.845275 -19.793996 -12.209082 9.139001 4.680788 -1.419382 -0.584012 0.000000 0.000000 0.000000 1.367140 -3.180378 0.796602 3.048461 -1.392498 0.200633 1.965610 -0.245514 0.100024 0.828555 -0.475828 -0.127470 0.000000 0.000000 0.000000 1.950204 -0.215940 -0.014499 -0.352182 0.606122 0.467671 2.358679 1.089775 2.459675 0.000000 0.000000 0.000000 1.572671 -0.106639 -0.041467 0.545708 9.117161 -11.411150 -1.102753 -0.829079 -1.009636 13.481166 -10.423407 -51.238064 1.130304 -36.208001 1.456482 0.000000 0.000000 0.000000 1.818911 -0.254649 0.078038 1.668183 -7.526145 12.765516 0.642291 2.004601 -2.733557 5.525822 20.954107 60.545153 2.427516 26.663930 1.070289 0.000000 0.000000 0.000000 
-0.490887 33.575783 0.174162 0.000000 0.000000 0.000000 0.450565 -4.870845 2.938685 -5.922577 0.481701 7.040422 23.693224 0.069604 -1.799208 -10.974450 6.312805 -12.260024 -7.027602 0.080559 1.234102 0.000000 0.000000 0.000000 1.205007 -5.489989 2.504332 -0.142151 -6.490190 -16.738891 19.500216 4.511046 3.925066 -18.729663 -10.850271 6.973139 0.699342 -1.362530 -0.370863 0.000000 0.000000 0.000000 1.510694 -3.657163 1.930000 3.232114 -1.992254 -0.501378 1.587605 -0.409201 -0.025086 0.850672 -0.336635 -0.083741 0.000000 0.000000 0.000000 1.525756 -0.329988 -0.098992 -0.038676 0.607337 0.238516 3.727011 1.385650 2.546865 0.000000 0.000000 0.000000 1.228216 -0.259999 -0.103580 0.517867 8.384259 -11.274630 -0.908470 -0.402221 -0.831062 13.856062 -11.814724 -51.579833 0.698716 -36.641895 1.086328 0.000000 0.000000 0.000000 1.480269 -0.399211 0.057348 1.673321 -7.202578 12.780304 0.625479 1.905854 -2.809880 5.732775 21.412542 60.252001 2.222631 27.850581 1.034908 0.000000 0.000000 0.000000 
-0.589123 33.509617 0.089931 0.000000 0.000000 0.000000 0.621138 -5.291183 3.924073 -4.752936 3.316408 4.797975 21.923668 0.990586 -2.495432 -13.931771 4.890283 -8.883506 -2.625953 0.244885 -0.336103 0.000000 0.000000 0.000000 1.317919 -5.822034 3.482659 -2.995338 -6.695375 -17.065253 22.707959 4.989091 3.989764 -17.130053 -9.289425 4.759916 -4.941441 -1.419699 -0.378504 0.000000 0.000000 0.000000 1.464900 -4.792759 2.864869 3.546902 -2.643568 -1.250002 1.186068 -0.572607 -0.119455 1.018676 -0.145647 -0.093456 0.000000 0.000000 0.000000 1.089895 -0.430433 -0.177349 0.177119 0.565423 0.126756 5.417249 1.778066 2.569486 0.000000 0.000000 0.000000 0.847756 -0.390656 -0.141154 0.453884 7.525882 -11.090131 -0.870235 -0.056725 -0.674736 14.491577 -13.300830 -51.896170 0.236199 -36.966118 0.684459 0.000000 0.000000 0.000000 1.084952 -0.528002 0.041016 1.630683 -6.706245 12.961182 0.533824 1.733590 -2.827308 6.003651 21.828830 59.884954 2.040910 28.726543 0.948598 0.000000 0.000000 0.000000 
-0.648633 33.314438 0.102524 0.000000 0.000000 0.000000 0.727302 -6.308819 4.453756 -3.982389 5.607542 3.397890 20.712902 1.572195 -3.104763 -16.487090 3.405560 -6.372672 1.811435 0.337851 -1.358059 0.000000 0.000000 0.000000 1.372539 -6.702628 4.115101 -6.056810 -6.781314 -16.585516 26.230602 5.770465 4.161192 -15.258982 -7.427796 2.761609 -10.403678 -1.549921 -0.641139 0.000000 0.000000 0.000000 1.277093 -6.361203 3.396815 3.972041 -3.173226 -1.863135 0.836333 -0.690763 -0.151344 1.244248 -0.021625 -0.054502 0.000000 0.000000 0.000000 0.737888 -0.494620 -0.225838 0.284407 0.499128 0.112354 7.342800 2.272480 2.450636 0.000000 0.000000 0.000000 0.510780 -0.476585 -0.135660 0.379751 6.688705 -10.844411 -0.980802 0.124816 -0.485331 15.287485 -14.775122 -52.121600 -0.078489 -37.205038 0.397327 0.000000 0.000000 0.000000 0.712557 -0.626707 0.039041 1.549800 -6.068941 13.367374 0.400050 1.541924 -2.805699 6.263041 22.031482 59.489950 1.921239 29.373515 0.814788 0.000000 0.000000 0.000000 
-0.638780 33.055279 0.078686 0.000000 0.000000 0.000000 0.668367 -7.627446 4.458813 -3.618697 7.182506 2.945765 20.398053 1.547479 -3.498700 -18.513066 1.905253 -5.290737 2.583461 0.401170 -0.814413 0.000000 0.000000 0.000000 1.439231 -7.915595 4.228596 -8.641092 -6.959997 -15.102626 29.111359 6.887419 4.485883 -13.357316 -5.231688 1.067747 -14.306015 -1.604021 -1.094842 0.000000 0.000000 0.000000 1.054894 -8.167170 3.481314 4.466489 -3.477410 -2.227573 0.568629 -0.739584 -0.123881 1.261567 0.148174 0.057035 0.000000 0.000000 0.000000 0.519299 -0.515979 -0.230535 0.340339 0.453871 0.164378 9.435928 2.835216 2.152511 0.000000 0.000000 0.000000 0.279904 -0.507043 -0.095468 0.330550 6.007721 -10.561931 -1.134547 0.150299 -0.318253 16.160002 -16.160784 -52.188902 -0.143005 -37.363908 0.297846 0.000000 0.000000 0.000000 0.426011 -0.690618 0.038715 1.446622 -5.358791 13.917096 0.354024 1.478167 -2.756826 6.542280 21.849659 59.133059 1.875437 30.123497 0.645228 0.000000 0.000000 0.000000 
-0.561923 32.811047 0.008938 0.000000 0.000000 0.000000 0.390734 -8.954837 4.071007 -3.481852 8.227326 2.957124 21.203472 1.952328 -3.694755 -20.929906 0.889401 -4.376438 0.793027 0.403569 -0.016321 0.000000 0.000000 0.000000 1.495362 -9.355771 3.886007 -10.012139 -7.136578 -12.665304 30.546454 8.308744 4.890639 -11.689532 -2.816277 -0.242920 -15.963887 -1.466096 -1.632395 0.000000 0.000000 0.000000 0.765987 -10.001339 3.211189 4.952571 -3.544484 -2.329410 0.415247 -0.720792 -0.069369 1.191277 0.298444 0.185862 0.000000 0.000000 0.000000 0.433606 -0.508906 -0.193575 0.428115 0.474019 0.227141 11.613210 3.482337 1.679294 0.000000 0.000000 0.000000 0.182122 -0.500174 -0.038172 0.317526 5.571453 -10.271067 -1.279133 -0.080289 -0.139289 17.071173 -17.389149 -52.031469 0.028905 -37.397208 0.387693 0.000000 0.000000 0.000000 0.253689 -0.723367 0.031764 1.346830 -4.636551 14.533338 0.354448 1.624570 -2.741918 6.893298 21.123311 58.892630 1.879277 31.339961 0.484767 0.000000 0.000000 0.000000 
